<svg width="21" height="20" viewBox="0 0 21 20" fill="none" xmlns="http://www.w3.org/2000/svg">
<path d="M10.5009 5.95324L9.13651 4.55662L9.13594 4.55605C8.78804 4.20177 8.37304 3.92037 7.91517 3.72827C7.45731 3.53617 6.96575 3.43723 6.46922 3.43723C5.97269 3.43723 5.48113 3.53617 5.02327 3.72827C4.56548 3.92033 4.15054 4.20167 3.80268 4.55586C3.08868 5.2808 2.68846 6.25748 2.68846 7.275C2.68846 8.29259 3.08874 9.26935 3.80284 9.9943L3.80313 9.99459L10.2781 16.5508L10.5005 16.776L10.7228 16.5508L17.1978 9.99459L17.1981 9.9943C17.9122 9.26935 18.3125 8.29259 18.3125 7.275C18.3125 6.25752 17.9123 5.28088 17.1983 4.55595C16.8506 4.20148 16.4357 3.91997 15.9778 3.72791C15.5201 3.53591 15.0286 3.43718 14.5322 3.4375C14.5319 3.4375 14.5317 3.4375 14.5315 3.4375L14.5317 3.75M10.5009 5.95324L11.8578 4.56949L11.8586 4.5687L12.0817 4.7875M10.5009 5.95324L11.857 4.57036M10.5009 5.95324L11.857 4.57036M14.5317 3.75C14.0746 3.74935 13.622 3.84089 13.201 4.01915C12.7801 4.19741 12.3994 4.45874 12.0817 4.7875M14.5317 3.75C14.9868 3.74962 15.4373 3.84008 15.8569 4.01609C16.2766 4.1921 16.6569 4.45011 16.9755 4.775L14.5317 3.75ZM12.0817 4.7875L11.857 4.57036M12.0817 4.7875L11.857 4.57036M14.5315 2.8125L14.5316 2.8125C15.1115 2.81266 15.6856 2.92827 16.2204 3.15259C16.7551 3.37691 17.2399 3.70544 17.6463 4.11904C18.4752 4.96287 18.9397 6.09841 18.9397 7.28125C18.9397 8.46391 18.4754 9.59929 17.6467 10.4431C17.6466 10.4432 17.6464 10.4434 17.6463 10.4435L10.5005 17.6802L3.35465 10.4435C3.35454 10.4434 3.35444 10.4433 3.35433 10.4432C2.52561 9.59939 2.06128 8.46396 2.06128 7.28125C2.06128 6.09846 2.52568 4.96295 3.35452 4.11913C3.76109 3.70575 4.24588 3.37744 4.78064 3.15333C5.31539 2.92923 5.88941 2.81381 6.46922 2.81381C7.04903 2.81381 7.62305 2.92923 8.1578 3.15333C8.69255 3.37744 9.17735 3.70575 9.58392 4.11913L9.58476 4.11998L10.2785 4.81998L10.5005 5.04394L10.7224 4.81998L11.4162 4.11998L11.4173 4.11879C11.8233 3.70475 12.3079 3.37593 12.8427 3.15161C13.3774 2.9273 13.9516 2.81201 14.5315 2.8125Z" fill="#BDBDBD" stroke="#252B42" stroke-width="0.625"/>
</svg>
