<svg width="32" height="33" viewBox="0 0 32 33" fill="none" xmlns="http://www.w3.org/2000/svg">
<path d="M17.1959 29.6436C16.4883 29.6456 15.8093 29.3642 15.3106 28.8622L4.86127 18.4155C4.3099 17.866 4.02723 17.1023 4.08793 16.3262L4.7546 7.57155C4.84983 6.25379 5.90049 5.20711 7.2186 5.11688L15.9733 4.45022C16.0426 4.43555 16.1106 4.43555 16.1799 4.43555C16.8861 4.4347 17.5634 4.71599 18.0613 5.21688L28.5106 15.6622C29.0109 16.1623 29.292 16.8408 29.292 17.5482C29.292 18.2556 29.0109 18.9341 28.5106 19.4342L19.0813 28.8622C18.5824 29.364 17.9035 29.6453 17.1959 29.6436ZM11.5386 9.22488C10.3317 9.22523 9.27549 10.0361 8.9634 11.202C8.65131 12.3678 9.16116 13.598 10.2065 14.2012C11.2518 14.8045 12.572 14.6304 13.4253 13.7769L13.4346 13.7689L13.4439 13.7595L13.4333 13.7689C14.1912 13.0043 14.415 11.859 14.0007 10.8653C13.5864 9.87163 12.6152 9.22456 11.5386 9.22488Z" fill="#40BB15"/>
</svg>
