<svg width="7" height="11" viewBox="0 0 7 11" fill="none" xmlns="http://www.w3.org/2000/svg">
<path d="M3.1459 10.854C3.19234 10.9006 3.24752 10.9375 3.30827 10.9627C3.36901 10.9879 3.43413 11.0009 3.4999 11.0009C3.56567 11.0009 3.63079 10.9879 3.69153 10.9627C3.75228 10.9375 3.80745 10.9006 3.8539 10.854L6.8539 7.854C6.94779 7.76011 7.00053 7.63278 7.00053 7.5C7.00053 7.36722 6.94779 7.23989 6.8539 7.146C6.76001 7.05211 6.63268 6.99937 6.4999 6.99937C6.36712 6.99937 6.23979 7.05211 6.1459 7.146L3.9999 9.293V0.5C3.9999 0.367392 3.94722 0.240215 3.85345 0.146447C3.75969 0.0526784 3.63251 0 3.4999 0C3.36729 0 3.24011 0.0526784 3.14635 0.146447C3.05258 0.240215 2.9999 0.367392 2.9999 0.5V9.293L0.853899 7.146C0.760013 7.05211 0.632675 6.99937 0.499899 6.99937C0.367124 6.99937 0.239786 7.05211 0.145899 7.146C0.0520127 7.23989 -0.000732422 7.36722 -0.000732422 7.5C-0.000732422 7.63278 0.0520127 7.76011 0.145899 7.854L3.1459 10.854Z" fill="#737373"/>
</svg>
