<svg width="17" height="16" viewBox="0 0 17 16" fill="none" xmlns="http://www.w3.org/2000/svg">
<g clip-path="url(#clip0_1_230)">
<path d="M16.3333 13.8332H2V0.833171C2 0.741504 1.925 0.666504 1.83333 0.666504H0.666667C0.575 0.666504 0.5 0.741504 0.5 0.833171V15.1665C0.5 15.2582 0.575 15.3332 0.666667 15.3332H16.3333C16.425 15.3332 16.5 15.2582 16.5 15.1665V13.9998C16.5 13.9082 16.425 13.8332 16.3333 13.8332ZM3.5 12.4998H14.6667C14.7583 12.4998 14.8333 12.4248 14.8333 12.3332V3.24984C14.8333 3.09984 14.6521 3.02692 14.5479 3.13109L10.1667 7.51234L7.55417 4.929C7.52284 4.89799 7.48054 4.88059 7.43646 4.88059C7.39238 4.88059 7.35007 4.89799 7.31875 4.929L3.38125 8.879C3.36596 8.89433 3.35385 8.91252 3.34562 8.93255C3.3374 8.95257 3.33322 8.97402 3.33333 8.99567V12.3332C3.33333 12.4248 3.40833 12.4998 3.5 12.4998Z" fill="#40BB15"/>
</g>
<defs>
<clipPath id="clip0_1_230">
<rect width="16" height="14.6667" fill="white" transform="translate(0.5 0.666504)"/>
</clipPath>
</defs>
</svg>
